<svg xmlns="http://www.w3.org/2000/svg" viewBox="0 0 100 100" width="100" height="100">
  <!-- Starling bird logo - clean line art style -->
  <g transform="translate(50,50) scale(0.8)">
    <!-- Main body outline -->
    <path d="M-25,0 C-25,-15 -15,-25 0,-25 C15,-25 25,-15 25,0 C25,10 20,15 15,20 L25,25 C30,20 35,15 40,10 C45,5 50,0 55,-5"
          fill="none"
          stroke="currentColor"
          stroke-width="2.5"
          stroke-linecap="round"
          stroke-linejoin="round"/>

    <!-- Head and beak -->
    <path d="M-25,0 L-35,2"
          stroke="currentColor"
          stroke-width="2.5"
          stroke-linecap="round"/>

    <!-- Eye -->
    <circle cx="-18" cy="-5" r="1.5" fill="currentColor"/>

    <!-- Wing detail lines -->
    <path d="M-5,-10 C5,-5 15,0 20,8"
          fill="none"
          stroke="currentColor"
          stroke-width="1.8"
          stroke-linecap="round"/>
    <path d="M-2,-5 C8,0 18,5 22,12"
          fill="none"
          stroke="currentColor"
          stroke-width="1.8"
          stroke-linecap="round"/>
    <path d="M2,0 C12,5 22,10 25,18"
          fill="none"
          stroke="currentColor"
          stroke-width="1.8"
          stroke-linecap="round"/>

    <!-- Tail feathers -->
    <path d="M25,25 L45,20 M25,28 L45,28 M25,31 L40,35"
          stroke="currentColor"
          stroke-width="2.5"
          stroke-linecap="round"/>

    <!-- Legs -->
    <path d="M-8,20 L-8,30 M-8,30 L-12,35 M-8,30 L-4,35"
          stroke="currentColor"
          stroke-width="1.8"
          stroke-linecap="round"/>
    <path d="M2,22 L2,32 M2,32 L-2,37 M2,32 L6,37"
          stroke="currentColor"
          stroke-width="1.8"
          stroke-linecap="round"/>
  </g>
</svg>
